{
	"asset":{
		"generator":"Khronos glTF Blender I/O v3.6.27",
		"version":"2.0"
	},
	"extensionsUsed":[
		"KHR_materials_ior"
	],
	"scene":0,
	"scenes":[
		{
			"name":"Scene",
			"nodes":[
				0
			]
		}
	],
	"nodes":[
		{
			"mesh":0,
			"name":"model.004"
		}
	],
	"materials":[
		{
			"doubleSided":true,
			"extensions":{
				"KHR_materials_specular":{
					"specularColorFactor":[
						0,
						0,
						0
					]
				},
				"KHR_materials_ior":{
					"ior":1.4500000476837158
				}
			},
			"name":"Material_0",
			"normalTexture":{
				"index":0
			},
			"pbrMetallicRoughness":{
				"baseColorTexture":{
					"index":1
				},
				"metallicFactor":0
			}
		}
	],
	"meshes":[
		{
			"name":"Mesh_0",
			"primitives":[
				{
					"attributes":{
						"POSITION":0,
						"NORMAL":1,
						"TEXCOORD_0":2
					},
					"indices":3,
					"material":0
				}
			]
		}
	],
	"textures":[
		{
			"sampler":0,
			"source":0
		},
		{
			"sampler":0,
			"source":1
		}
	],
	"images":[
		{
			"bufferView":4,
			"mimeType":"image/jpeg",
			"name":"Image_1"
		},
		{
			"bufferView":5,
			"mimeType":"image/jpeg",
			"name":"Image_0"
		}
	],
	"accessors":[
		{
			"bufferView":0,
			"componentType":5126,
			"count":20556,
			"max":[
				0.40385669469833374,
				0.4774734377861023,
				0.4698364734649658
			],
			"min":[
				-0.43403834104537964,
				-0.4605146646499634,
				-0.3781609833240509
			],
			"type":"VEC3"
		},
		{
			"bufferView":1,
			"componentType":5126,
			"count":20556,
			"type":"VEC3"
		},
		{
			"bufferView":2,
			"componentType":5126,
			"count":20556,
			"type":"VEC2"
		},
		{
			"bufferView":3,
			"componentType":5123,
			"count":90000,
			"type":"SCALAR"
		}
	],
	"bufferViews":[
		{
			"buffer":0,
			"byteLength":246672,
			"byteOffset":0,
			"target":34962
		},
		{
			"buffer":0,
			"byteLength":246672,
			"byteOffset":246672,
			"target":34962
		},
		{
			"buffer":0,
			"byteLength":164448,
			"byteOffset":493344,
			"target":34962
		},
		{
			"buffer":0,
			"byteLength":180000,
			"byteOffset":657792,
			"target":34963
		},
		{
			"buffer":0,
			"byteLength":550373,
			"byteOffset":837792
		},
		{
			"buffer":0,
			"byteLength":280514,
			"byteOffset":1388168
		}
	],
	"samplers":[
		{
			"magFilter":9729,
			"minFilter":9987,
			"wrapS":33071,
			"wrapT":33071
		}
	],
	"buffers":[
		{
			"byteLength":1668684,
			"uri":"data:application/octet-stream;base64,"
		}
	]
}
