{
	"asset":{
		"generator":"Khronos glTF Blender I/O v3.6.27",
		"version":"2.0"
	},
	"extensionsUsed":[
		"KHR_materials_ior"
	],
	"scene":0,
	"scenes":[
		{
			"name":"Scene",
			"nodes":[
				0
			]
		}
	],
	"nodes":[
		{
			"mesh":0,
			"name":"pumpkin_star_moon"
		}
	],
	"materials":[
		{
			"doubleSided":true,
			"extensions":{
				"KHR_materials_specular":{
					"specularColorFactor":[
						0,
						0,
						0
					]
				},
				"KHR_materials_ior":{
					"ior":1.4500000476837158
				}
			},
			"name":"Material_0",
			"normalTexture":{
				"index":0
			},
			"pbrMetallicRoughness":{
				"baseColorTexture":{
					"index":1
				},
				"metallicFactor":0
			}
		}
	],
	"meshes":[
		{
			"name":"Mesh_0",
			"primitives":[
				{
					"attributes":{
						"POSITION":0,
						"NORMAL":1,
						"TEXCOORD_0":2
					},
					"indices":3,
					"material":0
				}
			]
		}
	],
	"textures":[
		{
			"sampler":0,
			"source":0
		},
		{
			"sampler":0,
			"source":1
		}
	],
	"images":[
		{
			"bufferView":4,
			"mimeType":"image/jpeg",
			"name":"Image_1"
		},
		{
			"bufferView":5,
			"mimeType":"image/jpeg",
			"name":"Image_0"
		}
	],
	"accessors":[
		{
			"bufferView":0,
			"componentType":5126,
			"count":20861,
			"max":[
				0.40385669469833374,
				0.4775350093841553,
				0.4698367118835449
			],
			"min":[
				-0.43403875827789307,
				-0.46051469445228577,
				-0.37816083431243896
			],
			"type":"VEC3"
		},
		{
			"bufferView":1,
			"componentType":5126,
			"count":20861,
			"type":"VEC3"
		},
		{
			"bufferView":2,
			"componentType":5126,
			"count":20861,
			"type":"VEC2"
		},
		{
			"bufferView":3,
			"componentType":5123,
			"count":89997,
			"type":"SCALAR"
		}
	],
	"bufferViews":[
		{
			"buffer":0,
			"byteLength":250332,
			"byteOffset":0,
			"target":34962
		},
		{
			"buffer":0,
			"byteLength":250332,
			"byteOffset":250332,
			"target":34962
		},
		{
			"buffer":0,
			"byteLength":166888,
			"byteOffset":500664,
			"target":34962
		},
		{
			"buffer":0,
			"byteLength":179994,
			"byteOffset":667552,
			"target":34963
		},
		{
			"buffer":0,
			"byteLength":528444,
			"byteOffset":847548
		},
		{
			"buffer":0,
			"byteLength":276314,
			"byteOffset":1375992
		}
	],
	"samplers":[
		{
			"magFilter":9729,
			"minFilter":9987,
			"wrapS":33071,
			"wrapT":33071
		}
	],
	"buffers":[
		{
			"byteLength":1652308,
			"uri":"data:application/octet-stream;base64,"
		}
	]
}
