{
	"asset":{
		"generator":"Khronos glTF Blender I/O v3.6.27",
		"version":"2.0"
	},
	"extensionsUsed":[
		"KHR_materials_ior",
		"KHR_materials_specular"
	],
	"scene":0,
	"scenes":[
		{
			"name":"Scene",
			"nodes":[
				0
			]
		}
	],
	"nodes":[
		{
			"mesh":0,
			"name":"U2Q5834CV0L2J029TEKVE4T2O",
			"rotation":[
				-0.6987359523773193,
				-0.7125871777534485,
				0.052774619311094284,
				0.034675586968660355
			],
			"scale":[
				0.47412121295928955,
				0.47412118315696716,
				0.4741213023662567
			],
			"translation":[
				-0.07471264898777008,
				-0.02371048927307129,
				-0.1310872733592987
			]
		}
	],
	"materials":[
		{
			"doubleSided":true,
			"extensions":{
				"KHR_materials_specular":{
					"specularColorFactor":[
						0,
						0,
						0
					]
				},
				"KHR_materials_ior":{
					"ior":1.4500000476837158
				}
			},
			"name":"mat_0-color_0.696480-0.687040-0.677680.jpg",
			"pbrMetallicRoughness":{
				"baseColorTexture":{
					"index":0
				},
				"metallicFactor":0,
				"roughnessFactor":0.9007570743560791
			}
		},
		{
			"doubleSided":true,
			"extensions":{
				"KHR_materials_specular":{
					"specularColorFactor":[
						0,
						0,
						0
					]
				},
				"KHR_materials_ior":{
					"ior":1.4500000476837158
				}
			},
			"name":"mat_1-color_0.800000-0.790560-0.752960.jpg",
			"pbrMetallicRoughness":{
				"baseColorTexture":{
					"index":1
				},
				"metallicFactor":0,
				"roughnessFactor":0.9007570743560791
			}
		},
		{
			"doubleSided":true,
			"extensions":{
				"KHR_materials_specular":{
					"specularColorFactor":[
						0,
						0,
						0
					]
				},
				"KHR_materials_ior":{
					"ior":1.4500000476837158
				}
			},
			"name":"mat_2-eye_a5.jpg",
			"pbrMetallicRoughness":{
				"baseColorTexture":{
					"index":2
				},
				"metallicFactor":0,
				"roughnessFactor":0.9007570743560791
			}
		},
		{
			"doubleSided":true,
			"extensions":{
				"KHR_materials_specular":{
					"specularColorFactor":[
						0,
						0,
						0
					]
				},
				"KHR_materials_ior":{
					"ior":1.4500000476837158
				}
			},
			"name":"mat_3-tiger.jpg",
			"pbrMetallicRoughness":{
				"baseColorTexture":{
					"index":3
				},
				"metallicFactor":0,
				"roughnessFactor":0.9007570743560791
			}
		},
		{
			"doubleSided":true,
			"extensions":{
				"KHR_materials_specular":{
					"specularColorFactor":[
						0,
						0,
						0
					]
				},
				"KHR_materials_ior":{
					"ior":1.4500000476837158
				}
			},
			"name":"mat_4-color_0.627440-0.627440-0.627440.jpg",
			"pbrMetallicRoughness":{
				"baseColorTexture":{
					"index":4
				},
				"metallicFactor":0,
				"roughnessFactor":0.9007570743560791
			}
		}
	],
	"meshes":[
		{
			"name":"U2Q5834CV0L2J029TEKVE4T2O",
			"primitives":[
				{
					"attributes":{
						"POSITION":0,
						"NORMAL":1,
						"TEXCOORD_0":2
					},
					"indices":3,
					"material":0
				},
				{
					"attributes":{
						"POSITION":4,
						"NORMAL":5,
						"TEXCOORD_0":6
					},
					"indices":7,
					"material":1
				},
				{
					"attributes":{
						"POSITION":8,
						"NORMAL":9,
						"TEXCOORD_0":10
					},
					"indices":11,
					"material":2
				},
				{
					"attributes":{
						"POSITION":12,
						"NORMAL":13,
						"TEXCOORD_0":14
					},
					"indices":15,
					"material":3
				},
				{
					"attributes":{
						"POSITION":16,
						"NORMAL":17,
						"TEXCOORD_0":18
					},
					"indices":19,
					"material":4
				}
			]
		}
	],
	"textures":[
		{
			"sampler":0,
			"source":0
		},
		{
			"sampler":0,
			"source":1
		},
		{
			"sampler":0,
			"source":2
		},
		{
			"sampler":0,
			"source":3
		},
		{
			"sampler":0,
			"source":4
		}
	],
	"images":[
		{
			"bufferView":4,
			"mimeType":"image/jpeg",
			"name":"color_0.696480-0.687040-0"
		},
		{
			"bufferView":9,
			"mimeType":"image/jpeg",
			"name":"color_0.800000-0.790560-0"
		},
		{
			"bufferView":14,
			"mimeType":"image/jpeg",
			"name":"eye_a5"
		},
		{
			"bufferView":19,
			"mimeType":"image/jpeg",
			"name":"tiger"
		},
		{
			"bufferView":24,
			"mimeType":"image/jpeg",
			"name":"color_0.627440-0.627440-0"
		}
	],
	"accessors":[
		{
			"bufferView":0,
			"componentType":5126,
			"count":300,
			"max":[
				0.1149659976363182,
				1.154803991317749,
				-0.39601001143455505
			],
			"min":[
				0.07048899680376053,
				1.131780982017517,
				-0.4450399875640869
			],
			"type":"VEC3"
		},
		{
			"bufferView":1,
			"componentType":5126,
			"count":300,
			"type":"VEC3"
		},
		{
			"bufferView":2,
			"componentType":5126,
			"count":300,
			"type":"VEC2"
		},
		{
			"bufferView":3,
			"componentType":5123,
			"count":300,
			"type":"SCALAR"
		},
		{
			"bufferView":5,
			"componentType":5126,
			"count":476,
			"max":[
				0.11926300078630447,
				1.154284954071045,
				-0.38612601161003113
			],
			"min":[
				-0.11925700306892395,
				1.1138370037078857,
				-0.4584360122680664
			],
			"type":"VEC3"
		},
		{
			"bufferView":6,
			"componentType":5126,
			"count":476,
			"type":"VEC3"
		},
		{
			"bufferView":7,
			"componentType":5126,
			"count":476,
			"type":"VEC2"
		},
		{
			"bufferView":8,
			"componentType":5123,
			"count":480,
			"type":"SCALAR"
		},
		{
			"bufferView":10,
			"componentType":5126,
			"count":300,
			"max":[
				-0.07049000263214111,
				1.154803991317749,
				-0.39601001143455505
			],
			"min":[
				-0.11495999991893768,
				1.131780982017517,
				-0.4450399875640869
			],
			"type":"VEC3"
		},
		{
			"bufferView":11,
			"componentType":5126,
			"count":300,
			"type":"VEC3"
		},
		{
			"bufferView":12,
			"componentType":5126,
			"count":300,
			"type":"VEC2"
		},
		{
			"bufferView":13,
			"componentType":5123,
			"count":300,
			"type":"SCALAR"
		},
		{
			"bufferView":15,
			"componentType":5126,
			"count":25674,
			"max":[
				0.3213619887828827,
				1.25,
				0.6415500044822693
			],
			"min":[
				-0.3213619887828827,
				-1.25,
				-0.6415500044822693
			],
			"type":"VEC3"
		},
		{
			"bufferView":16,
			"componentType":5126,
			"count":25674,
			"type":"VEC3"
		},
		{
			"bufferView":17,
			"componentType":5126,
			"count":25674,
			"type":"VEC2"
		},
		{
			"bufferView":18,
			"componentType":5123,
			"count":25674,
			"type":"SCALAR"
		},
		{
			"bufferView":20,
			"componentType":5126,
			"count":1200,
			"max":[
				0.22135600447654724,
				1.2349179983139038,
				-0.18129299581050873
			],
			"min":[
				-0.221343994140625,
				1.0714420080184937,
				-0.25581300258636475
			],
			"type":"VEC3"
		},
		{
			"bufferView":21,
			"componentType":5126,
			"count":1200,
			"type":"VEC3"
		},
		{
			"bufferView":22,
			"componentType":5126,
			"count":1200,
			"type":"VEC2"
		},
		{
			"bufferView":23,
			"componentType":5123,
			"count":1200,
			"type":"SCALAR"
		}
	],
	"bufferViews":[
		{
			"buffer":0,
			"byteLength":3600,
			"byteOffset":0,
			"target":34962
		},
		{
			"buffer":0,
			"byteLength":3600,
			"byteOffset":3600,
			"target":34962
		},
		{
			"buffer":0,
			"byteLength":2400,
			"byteOffset":7200,
			"target":34962
		},
		{
			"buffer":0,
			"byteLength":600,
			"byteOffset":9600,
			"target":34963
		},
		{
			"buffer":0,
			"byteLength":695,
			"byteOffset":10200
		},
		{
			"buffer":0,
			"byteLength":5712,
			"byteOffset":10896,
			"target":34962
		},
		{
			"buffer":0,
			"byteLength":5712,
			"byteOffset":16608,
			"target":34962
		},
		{
			"buffer":0,
			"byteLength":3808,
			"byteOffset":22320,
			"target":34962
		},
		{
			"buffer":0,
			"byteLength":960,
			"byteOffset":26128,
			"target":34963
		},
		{
			"buffer":0,
			"byteLength":695,
			"byteOffset":27088
		},
		{
			"buffer":0,
			"byteLength":3600,
			"byteOffset":27784,
			"target":34962
		},
		{
			"buffer":0,
			"byteLength":3600,
			"byteOffset":31384,
			"target":34962
		},
		{
			"buffer":0,
			"byteLength":2400,
			"byteOffset":34984,
			"target":34962
		},
		{
			"buffer":0,
			"byteLength":600,
			"byteOffset":37384,
			"target":34963
		},
		{
			"buffer":0,
			"byteLength":22666,
			"byteOffset":37984
		},
		{
			"buffer":0,
			"byteLength":308088,
			"byteOffset":60652,
			"target":34962
		},
		{
			"buffer":0,
			"byteLength":308088,
			"byteOffset":368740,
			"target":34962
		},
		{
			"buffer":0,
			"byteLength":205392,
			"byteOffset":676828,
			"target":34962
		},
		{
			"buffer":0,
			"byteLength":51348,
			"byteOffset":882220,
			"target":34963
		},
		{
			"buffer":0,
			"byteLength":70138,
			"byteOffset":933568
		},
		{
			"buffer":0,
			"byteLength":14400,
			"byteOffset":1003708,
			"target":34962
		},
		{
			"buffer":0,
			"byteLength":14400,
			"byteOffset":1018108,
			"target":34962
		},
		{
			"buffer":0,
			"byteLength":9600,
			"byteOffset":1032508,
			"target":34962
		},
		{
			"buffer":0,
			"byteLength":2400,
			"byteOffset":1042108,
			"target":34963
		},
		{
			"buffer":0,
			"byteLength":694,
			"byteOffset":1044508
		}
	],
	"samplers":[
		{
			"magFilter":9729,
			"minFilter":9987
		}
	],
	"buffers":[
		{
			"byteLength":1045204,
			"uri":"data:application/octet-stream;base64,"
		}
	]
}
